<?xml version="1.0" encoding="UTF-8"?>
<svg id="Layer_1" data-name="Layer 1" xmlns="http://www.w3.org/2000/svg" viewBox="0 0 723.32 82.91">
  <defs>
    <style>
      .cls-1 {
        fill: #f5eded;
      }

      .cls-1, .cls-2 {
        stroke: #000;
        stroke-miterlimit: 10;
        stroke-width: 4px;
      }

      .cls-2 {
        fill: #ff5510;
      }
    </style>
  </defs>
  <path class="cls-1" d="M47.5,34.83c-1.09-1.79-2.58-3.17-4.46-4.13-1.89-.96-4.11-1.44-6.67-1.44-4.74,0-8.46,1.54-11.18,4.61-2.72,3.07-4.08,7.2-4.08,12.38,0,5.82,1.46,10.26,4.37,13.3,2.91,3.04,7.15,4.56,12.72,4.56,6.59,0,11.29-2.98,14.11-8.93h-18.91v-13.54h35.14v18.24c-1.47,3.58-3.63,6.94-6.48,10.08-2.85,3.14-6.45,5.71-10.8,7.73-4.35,2.02-9.31,3.02-14.88,3.02-6.78,0-12.78-1.46-18-4.37-5.22-2.91-9.25-6.97-12.1-12.19-2.85-5.22-4.27-11.18-4.27-17.9s1.42-12.59,4.27-17.81c2.85-5.22,6.86-9.28,12.05-12.19,5.18-2.91,11.17-4.37,17.95-4.37,8.51,0,15.55,2.05,21.12,6.14,5.57,4.1,9.03,9.7,10.37,16.8h-20.26Z"/>
  <path class="cls-1" d="M128.14,57.1h-35.62c.19,2.94,1.01,5.14,2.45,6.58s3.28,2.16,5.52,2.16c3.13,0,5.38-1.41,6.72-4.22h20.06c-.83,3.71-2.45,7.02-4.85,9.94-2.4,2.91-5.42,5.2-9.07,6.86-3.65,1.67-7.68,2.5-12.1,2.5-5.31,0-10.03-1.12-14.16-3.36-4.13-2.24-7.36-5.44-9.7-9.6-2.34-4.16-3.5-9.06-3.5-14.69s1.15-10.51,3.46-14.64c2.3-4.13,5.52-7.31,9.65-9.55,4.13-2.24,8.88-3.36,14.26-3.36s10.02,1.09,14.11,3.26c4.09,2.18,7.3,5.3,9.6,9.36,2.3,4.06,3.46,8.85,3.46,14.35,0,1.47-.1,2.94-.29,4.42ZM109.23,47.98c0-2.3-.77-4.11-2.3-5.42-1.54-1.31-3.46-1.97-5.76-1.97s-4.19.62-5.66,1.87c-1.47,1.25-2.43,3.09-2.88,5.52h16.61Z"/>
  <path class="cls-1" d="M146.72,77.55c-4.26-2.24-7.6-5.44-10.03-9.6-2.43-4.16-3.65-9.06-3.65-14.69s1.23-10.43,3.7-14.59c2.46-4.16,5.82-7.36,10.08-9.6,4.26-2.24,9.07-3.36,14.45-3.36s10.19,1.12,14.45,3.36c4.26,2.24,7.62,5.44,10.08,9.6,2.46,4.16,3.7,9.02,3.7,14.59s-1.23,10.45-3.7,14.64c-2.46,4.19-5.84,7.41-10.13,9.65-4.29,2.24-9.12,3.36-14.5,3.36s-10.19-1.12-14.45-3.36ZM167.74,61.66c1.76-1.95,2.64-4.75,2.64-8.4s-.88-6.43-2.64-8.35c-1.76-1.92-3.92-2.88-6.48-2.88s-4.7.96-6.43,2.88c-1.73,1.92-2.59,4.7-2.59,8.35s.83,6.53,2.5,8.45c1.66,1.92,3.81,2.88,6.43,2.88s4.82-.98,6.58-2.93Z"/>
  <path class="cls-1" d="M226.25,42.03h-8.45v38.21h-18.91v-38.21h-5.86v-15.65h5.86v-.48c0-6.91,2.03-12.21,6.1-15.89,4.06-3.68,9.9-5.52,17.52-5.52,1.54,0,2.72.03,3.55.1v16.03c-.51-.06-1.22-.1-2.11-.1-2.05,0-3.55.46-4.51,1.39-.96.93-1.5,2.42-1.63,4.46h8.45v15.65Z"/>
  <path class="cls-1" d="M234.46,18.66c-2.02-1.82-3.02-4.11-3.02-6.86s1.01-5.15,3.02-7.01c2.02-1.86,4.69-2.78,8.02-2.78s5.9.93,7.92,2.78c2.02,1.86,3.02,4.19,3.02,7.01s-1.01,5.04-3.02,6.86c-2.02,1.82-4.66,2.74-7.92,2.74s-6-.91-8.02-2.74ZM251.79,26.38v53.86h-18.82V26.38h18.82Z"/>
  <path class="cls-1" d="M272.48,78.46c-3.81-1.63-6.82-3.87-9.02-6.72-2.21-2.85-3.44-6.06-3.7-9.65h18.24c.25,1.73,1.06,3.07,2.4,4.03,1.34.96,3.01,1.44,4.99,1.44,1.54,0,2.75-.32,3.65-.96.9-.64,1.34-1.47,1.34-2.5,0-1.34-.74-2.34-2.21-2.98-1.47-.64-3.9-1.34-7.3-2.11-3.84-.77-7.04-1.63-9.6-2.59-2.56-.96-4.79-2.53-6.67-4.7-1.89-2.17-2.83-5.12-2.83-8.83,0-3.2.86-6.1,2.59-8.69,1.73-2.59,4.27-4.66,7.63-6.19,3.36-1.54,7.41-2.3,12.14-2.3,7.04,0,12.58,1.73,16.61,5.18,4.03,3.46,6.37,8,7.01,13.63h-16.99c-.32-1.73-1.07-3.06-2.26-3.98-1.18-.93-2.77-1.39-4.75-1.39-1.54,0-2.7.29-3.5.86-.8.58-1.2,1.38-1.2,2.4,0,1.28.74,2.26,2.21,2.93,1.47.67,3.84,1.36,7.1,2.06,3.9.83,7.15,1.76,9.74,2.78,2.59,1.02,4.86,2.67,6.82,4.94,1.95,2.27,2.93,5.36,2.93,9.26,0,3.14-.91,5.95-2.74,8.45s-4.42,4.46-7.78,5.9c-3.36,1.44-7.31,2.16-11.86,2.16-4.87,0-9.2-.82-13.01-2.45Z"/>
  <path class="cls-1" d="M318.56,18.66c-2.02-1.82-3.02-4.11-3.02-6.86s1.01-5.15,3.02-7.01c2.02-1.86,4.69-2.78,8.02-2.78s5.9.93,7.92,2.78c2.02,1.86,3.02,4.19,3.02,7.01s-1.01,5.04-3.02,6.86c-2.02,1.82-4.66,2.74-7.92,2.74s-6-.91-8.02-2.74ZM335.88,26.38v53.86h-18.82V26.38h18.82Z"/>
  <path class="cls-1" d="M347.02,38.67c2.3-4.16,5.52-7.36,9.65-9.6,4.13-2.24,8.85-3.36,14.16-3.36,6.85,0,12.61,1.87,17.28,5.62,4.67,3.74,7.68,8.98,9.02,15.7h-19.97c-1.15-3.52-3.39-5.28-6.72-5.28-2.37,0-4.24.98-5.62,2.93-1.38,1.95-2.06,4.82-2.06,8.59s.69,6.66,2.06,8.64c1.38,1.98,3.25,2.98,5.62,2.98,3.39,0,5.63-1.76,6.72-5.28h19.97c-1.34,6.66-4.35,11.87-9.02,15.65-4.67,3.78-10.43,5.66-17.28,5.66-5.31,0-10.03-1.12-14.16-3.36-4.13-2.24-7.34-5.44-9.65-9.6-2.3-4.16-3.46-9.06-3.46-14.69s1.15-10.43,3.46-14.59Z"/>
  <path class="cls-1" d="M404.86,38.67c2.02-4.16,4.77-7.36,8.26-9.6,3.49-2.24,7.38-3.36,11.66-3.36,3.71,0,6.91.74,9.6,2.21,2.69,1.47,4.77,3.46,6.24,5.95v-7.49h18.82v53.86h-18.82v-7.49c-1.47,2.5-3.57,4.48-6.29,5.95-2.72,1.47-5.9,2.21-9.55,2.21-4.29,0-8.18-1.12-11.66-3.36-3.49-2.24-6.24-5.46-8.26-9.65-2.02-4.19-3.02-9.07-3.02-14.64s1.01-10.43,3.02-14.59ZM437.79,45.1c-1.89-1.98-4.21-2.98-6.96-2.98s-5.15.98-7.01,2.93c-1.86,1.95-2.78,4.69-2.78,8.21s.93,6.19,2.78,8.21c1.86,2.02,4.19,3.02,7.01,3.02s5.07-.99,6.96-2.98c1.89-1.98,2.83-4.74,2.83-8.26s-.95-6.18-2.83-8.16Z"/>
  <path class="cls-2" d="M476.33,28.45c3.71-5.22,8.38-9.28,14.02-12.19,5.63-2.91,11.77-4.37,18.43-4.37,5.57,0,10.43,1.02,14.59,3.07,4.16,2.05,7.39,4.96,9.7,8.74,2.3,3.78,3.55,8.22,3.74,13.34h-20.26c-.77-2.5-2.11-4.42-4.03-5.76-1.92-1.34-4.29-2.02-7.1-2.02-4.35,0-8.1,1.54-11.23,4.61-3.14,3.07-5.15,7.2-6.05,12.38-.26,1.34-.38,2.78-.38,4.32,0,3.97,1.04,7.09,3.12,9.36,2.08,2.27,4.94,3.41,8.59,3.41,2.82,0,5.42-.67,7.82-2.02,2.4-1.34,4.4-3.26,6-5.76h20.35c-3.07,7.74-7.91,13.87-14.5,18.38-6.59,4.51-14.11,6.77-22.56,6.77-5.83,0-10.87-1.12-15.12-3.36-4.26-2.24-7.5-5.41-9.74-9.5-2.24-4.1-3.36-8.83-3.36-14.21,0-2.5.22-4.96.67-7.39,1.15-6.66,3.58-12.59,7.3-17.81Z"/>
  <path class="cls-2" d="M550.68,78.13c-3.62-1.86-6.42-4.48-8.4-7.87-1.98-3.39-2.98-7.36-2.98-11.9,0-6.14,1.46-11.71,4.37-16.7,2.91-4.99,6.93-8.9,12.05-11.71,5.12-2.82,10.85-4.22,17.18-4.22,4.67,0,8.82.93,12.43,2.78,3.62,1.86,6.43,4.5,8.45,7.92,2.02,3.42,3.02,7.41,3.02,11.95,0,6.21-1.47,11.79-4.42,16.75-2.95,4.96-6.98,8.83-12.1,11.62-5.12,2.78-10.85,4.18-17.18,4.18-4.67,0-8.82-.93-12.43-2.78ZM571.99,62.58c1.76-1.41,3.1-3.23,4.03-5.47.93-2.24,1.39-4.54,1.39-6.91,0-2.69-.69-4.74-2.06-6.14-1.38-1.41-3.15-2.11-5.33-2.11-2.3,0-4.31.71-6,2.11-1.7,1.41-3.01,3.23-3.94,5.47-.93,2.24-1.39,4.58-1.39,7.01,0,2.69.67,4.72,2.02,6.1,1.34,1.38,3.1,2.06,5.28,2.06s4.24-.7,6-2.11Z"/>
  <path class="cls-2" d="M606.5,38.67c2.75-4.16,6.08-7.36,9.98-9.6,3.9-2.24,8-3.36,12.29-3.36,3.46,0,6.42.72,8.88,2.16,2.46,1.44,4.24,3.41,5.33,5.9l4.32-24.58h18.91l-12.58,71.04h-18.91l1.44-7.49c-1.92,2.5-4.35,4.48-7.3,5.95-2.94,1.47-6.24,2.21-9.89,2.21-5.63,0-10.16-1.87-13.58-5.62-3.42-3.74-5.14-8.85-5.14-15.31,0-2.11.19-4.35.58-6.72,1.02-5.57,2.91-10.43,5.66-14.59ZM639.91,50.58c0-2.69-.75-4.77-2.26-6.24-1.5-1.47-3.44-2.21-5.81-2.21-2.82,0-5.34.98-7.58,2.93-2.24,1.95-3.65,4.69-4.22,8.21-.19.96-.29,1.89-.29,2.78,0,2.69.75,4.77,2.26,6.24,1.5,1.47,3.44,2.21,5.81,2.21,2.82,0,5.34-.99,7.58-2.98,2.24-1.98,3.65-4.74,4.22-8.26.19-.96.29-1.86.29-2.69Z"/>
  <path class="cls-2" d="M715.13,31.38c4.13,3.78,6.19,8.93,6.19,15.46,0,2.18-.16,4.1-.48,5.76-.38,2.05-.77,3.52-1.15,4.42h-35.62c-.06.38-.1.96-.1,1.73,0,2.43.59,4.22,1.78,5.38,1.18,1.15,2.77,1.73,4.75,1.73,3.13,0,5.63-1.41,7.49-4.22h19.97c-1.47,3.71-3.66,7.02-6.58,9.94-2.91,2.91-6.34,5.2-10.27,6.86-3.94,1.67-8.11,2.5-12.53,2.5-7.04,0-12.64-1.92-16.8-5.76-4.16-3.84-6.24-9.12-6.24-15.84,0-1.92.19-3.94.58-6.05,1.02-5.63,3.06-10.51,6.1-14.64,3.04-4.13,6.82-7.31,11.33-9.55,4.51-2.24,9.46-3.36,14.83-3.36,7.04,0,12.62,1.89,16.75,5.66ZM702.5,46.83c0-2.05-.64-3.6-1.92-4.66-1.28-1.06-2.94-1.58-4.99-1.58-2.37,0-4.42.67-6.14,2.02-1.73,1.34-3.01,3.33-3.84,5.95h16.7c.13-.9.19-1.47.19-1.73Z"/>
</svg>