<?xml version="1.0" encoding="UTF-8"?>
<svg id="Layer_1" data-name="Layer 1" xmlns="http://www.w3.org/2000/svg" viewBox="0 0 171.05 172.43">
  <defs>
    <style>
      .cls-1 {
        fill: #f5eded;
      }

      .cls-1, .cls-2 {
        stroke: #000;
        stroke-width: 4px;
      }

      .cls-2 {
        fill: #ff5510;
        stroke-miterlimit: 10;
      }
    </style>
  </defs>
  <path class="cls-1" d="M73.1,37.85c-1.7-2.8-4.03-4.95-6.97-6.45-2.95-1.5-6.43-2.25-10.43-2.25-7.4,0-13.23,2.4-17.48,7.2-4.25,4.8-6.38,11.25-6.38,19.35,0,9.1,2.27,16.03,6.83,20.77,4.55,4.75,11.17,7.12,19.88,7.12,10.3,0,17.65-4.65,22.05-13.95h-29.55v-21.15h54.9v28.5c-2.3,5.6-5.68,10.85-10.12,15.75-4.45,4.9-10.08,8.92-16.88,12.08-6.8,3.15-14.55,4.72-23.25,4.72-10.6,0-19.98-2.27-28.12-6.83-8.15-4.55-14.45-10.9-18.9-19.05-4.45-8.15-6.68-17.48-6.68-27.98s2.22-19.67,6.68-27.82c4.45-8.15,10.73-14.5,18.82-19.05,8.1-4.55,17.45-6.82,28.05-6.82,13.3,0,24.3,3.2,33,9.6,8.7,6.4,14.1,15.15,16.2,26.25h-31.65Z"/>
  <path class="cls-2" d="M74.48,88.76c5.8-8.15,13.1-14.5,21.9-19.05,8.8-4.55,18.4-6.82,28.8-6.82,8.7,0,16.3,1.6,22.8,4.8,6.5,3.2,11.55,7.75,15.15,13.65,3.6,5.9,5.55,12.85,5.85,20.85h-31.65c-1.2-3.9-3.3-6.9-6.3-9s-6.7-3.15-11.1-3.15c-6.8,0-12.65,2.4-17.55,7.2-4.9,4.8-8.05,11.25-9.45,19.35-.4,2.1-.6,4.35-.6,6.75,0,6.2,1.62,11.08,4.88,14.62,3.25,3.55,7.73,5.32,13.43,5.32,4.4,0,8.47-1.05,12.22-3.15,3.75-2.1,6.87-5.1,9.38-9h31.8c-4.8,12.1-12.35,21.67-22.65,28.72-10.3,7.05-22.05,10.58-35.25,10.58-9.1,0-16.98-1.75-23.62-5.25-6.65-3.5-11.73-8.45-15.23-14.85-3.5-6.4-5.25-13.8-5.25-22.2,0-3.9.35-7.75,1.05-11.55,1.8-10.4,5.6-19.67,11.4-27.83Z"/>
</svg>